<svg xmlns="http://www.w3.org/2000/svg" version="1.1" xmlns:xlink="http://www.w3.org/1999/xlink" xmlns:svgjs="http://svgjs.dev/svgjs" viewBox="0 0 2400 800" opacity="1"><g fill="hsl(32, 100%, 51%)" transform="matrix(1,0,0,1,11.510009765625,333.52916288375854)"><path d="M-10,10C8.75,12.916666666666668,44.583333333333336,29.208333333333336,80,24C115.41666666666666,18.791666666666664,126.66666666666666,-17.916666666666668,160,-15C193.33333333333334,-12.083333333333332,206.66666666666666,38.416666666666664,240,38C273.3333333333333,37.583333333333336,286.6666666666667,-15.125,320,-17C353.3333333333333,-18.875,366.6666666666667,25.041666666666668,400,29C433.3333333333333,32.958333333333336,446.6666666666667,1.5833333333333335,480,2C513.3333333333334,2.4166666666666665,526.6666666666666,34.541666666666664,560,31C593.3333333333334,27.458333333333332,606.6666666666666,-15,640,-15C673.3333333333334,-15,686.6666666666666,28.291666666666668,720,31C753.3333333333334,33.708333333333336,766.6666666666666,-4.5,800,-2C833.3333333333334,0.5,846.6666666666666,40.083333333333336,880,43C913.3333333333334,45.916666666666664,926.6666666666666,13.458333333333334,960,12C993.3333333333334,10.541666666666666,1006.6666666666666,39.75,1040,36C1073.3333333333333,32.25,1086.6666666666667,-8.083333333333334,1120,-6C1153.3333333333333,-3.9166666666666665,1166.6666666666667,43.916666666666664,1200,46C1233.3333333333333,48.083333333333336,1246.6666666666667,1.9166666666666665,1280,4C1313.3333333333333,6.083333333333334,1326.6666666666667,55.375,1360,56C1393.3333333333333,56.625,1406.6666666666667,6.791666666666667,1440,7C1473.3333333333333,7.208333333333333,1486.6666666666667,54.291666666666664,1520,57C1553.3333333333333,59.708333333333336,1566.6666666666667,16.25,1600,20C1633.3333333333333,23.75,1646.6666666666667,75.41666666666667,1680,75C1713.3333333333333,74.58333333333333,1726.6666666666667,17.375,1760,18C1793.3333333333333,18.625,1806.6666666666667,77.375,1840,78C1873.3333333333333,78.625,1886.6666666666667,20.375,1920,21C1953.3333333333333,21.625,1966.6666666666667,77.45833333333333,2000,81C2033.3333333333333,84.54166666666667,2046.6666666666667,40.5,2080,38C2113.3333333333335,35.5,2126.6666666666665,68.58333333333333,2160,69C2193.3333333333335,69.41666666666667,2206.6666666666665,39.166666666666664,2240,40C2273.3333333333335,40.833333333333336,2286.6666666666665,73.41666666666667,2320,73C2353.3333333333335,72.58333333333333,2331.25,-30.125,2400,38C2468.75,106.125,3254.1666666666665,220.41666666666669,2650,400C2045.8333333333335,579.5833333333333,156.25,795.8333333333334,-500,900" transform="matrix(1,0,0,1,0,25)" opacity="NaN"></path></g></svg>